<svg width="468" height="328" viewBox="0 0 468 328" fill="none" xmlns="http://www.w3.org/2000/svg">
<path d="M234 0.610001L0.48584 88.18L234 204.937L345.22 149.327L240.883 117.427C238.734 118.457 236.383 118.995 234 119C229.756 119 225.687 117.314 222.686 114.314C219.686 111.313 218 107.243 218 103C218 98.7565 219.686 94.6869 222.686 91.6863C225.687 88.6857 229.756 87 234 87L231.354 95.602L249.891 101.305C249.894 101.324 249.896 101.342 249.899 101.361L277.253 109.726L433 157.645V169.791C430.846 171.257 429.082 173.226 427.862 175.528C426.642 177.83 426.003 180.396 426 183.001C426.003 185.666 426.671 188.288 427.945 190.63C429.219 192.971 431.057 194.957 433.293 196.407C426.01 223.932 426 286.383 426 311C442 321.395 442 321.775 458 311C458 286.386 457.992 223.947 450.71 196.416C452.947 194.964 454.785 192.977 456.058 190.634C457.332 188.291 457.999 185.667 458 183C458 180.392 457.362 177.823 456.142 175.518C454.922 173.212 453.156 171.24 451 169.773V144.353L391.676 126.1L467.514 88.18L234 0.610001ZM97.6228 160L84.4998 238.74C110.675 242.163 141.986 257.377 170.77 275.367C187.14 285.599 202.473 296.83 214.926 307.727C222.538 314.387 228.903 320.777 234 327.064C239.097 320.776 245.462 314.387 253.074 307.727C265.527 296.83 280.859 285.599 297.23 275.367C326.014 257.377 357.325 242.163 383.5 238.74L370.375 160H364.125L234 225.063L103.873 160H97.6228Z" fill="black"/>
</svg>
