<svg width="520" height="520" viewBox="0 0 520 520" fill="none" xmlns="http://www.w3.org/2000/svg">
<g filter="url(#filter0_d_536_2409)">
<path opacity="0.1" d="M459.696 175.814C448.812 125.724 409.083 128.84 371.441 138.134C351.193 143.134 322.838 150.051 293.25 139.836C229.563 117.845 156.335 112.354 120.247 139.836C84.1598 167.317 62.4652 200.43 72.872 246.692C83.2777 292.953 109.713 334.546 87.2314 359.305C64.7495 384.064 65.1273 477.833 157.574 485.135C250.021 492.437 240.852 387.322 301.904 392.202C362.958 397.083 488.285 468.241 493.579 416.652C498.873 365.062 430.875 328.263 455.251 242.597C460.089 225.594 464.67 198.707 459.696 175.814Z" fill="#2C2A40"/>
<path opacity="0.1" d="M247.122 93.838C247.122 93.838 249.482 75.8741 256.13 76.5738C257.97 76.7681 259.221 78.9765 260.041 81.3491C260.547 82.8103 262.313 82.7081 262.679 81.1893C264.438 73.8903 268.035 62.7489 273.61 62.7489C279.375 62.7489 279.566 75.4955 279.148 83.2595C279.085 84.4285 280.364 84.9482 280.919 83.9793C282.441 81.3275 284.659 78.7807 287.359 79.5193C292.616 80.956 291.201 93.838 291.201 93.838H247.122Z" fill="#2C2A40"/>
<path opacity="0.1" d="M4 262.777C4 262.777 6.36083 244.813 13.0083 245.513C14.8479 245.707 16.0994 247.916 16.9196 250.288C17.425 251.749 19.1917 251.647 19.5574 250.128C21.3156 242.829 24.9133 231.688 30.488 231.688C36.2534 231.688 36.4441 244.436 36.0261 252.199C35.963 253.368 37.2424 253.887 37.7977 252.918C39.3189 250.267 41.5376 247.72 44.2374 248.458C49.4949 249.897 48.0794 262.777 48.0794 262.777H4Z" fill="#2C2A40"/>
<path opacity="0.1" d="M471.748 191.005C471.748 191.005 474.109 173.041 480.756 173.741C482.596 173.935 483.847 176.144 484.668 178.516C485.173 179.977 486.939 179.875 487.305 178.356C489.065 171.057 492.661 159.916 498.236 159.916C504.001 159.916 504.192 172.663 503.774 180.427C503.711 181.596 504.99 182.115 505.546 181.146C507.067 178.495 509.286 175.948 511.984 176.686C517.242 178.123 515.826 191.005 515.826 191.005H471.748Z" fill="#2C2A40"/>
<path d="M331.319 237.539C331.319 237.539 324.377 244.681 314.386 249.181C314.386 249.181 308.652 253.429 301.311 258.383C301.311 258.383 301.308 258.383 301.308 258.388C292.663 264.222 285.988 268.086 279.616 270.136C274.25 271.86 269.487 274.025 265.888 275.872C265.451 276.095 265.031 276.315 264.632 276.528H264.63C261.066 278.424 258.935 279.843 258.935 279.843L254.468 267.377C254.468 267.377 262.585 257.819 267.381 253.117C273.322 247.285 284.089 234.751 296.711 229.343C296.711 229.343 296.711 229.343 296.711 229.338C297.718 228.909 298.682 228.571 299.597 228.344C299.597 228.344 309.743 219.926 317.166 215.335C319.626 213.815 321.785 212.713 323.179 212.48C323.177 212.479 335.062 225.424 331.319 237.539Z" fill="#F9B587"/>
<path d="M303.394 235.445C303.394 235.445 299.168 229.891 296.71 229.34C296.71 229.34 296.71 229.34 296.71 229.335C297.718 228.906 298.682 228.568 299.597 228.341C299.596 228.344 303.019 232.428 303.394 235.445Z" fill="#F39568"/>
<path d="M331.319 237.539C331.319 237.539 324.377 244.681 314.386 249.181C314.386 249.181 308.652 253.429 301.311 258.383C306.419 254.093 314.484 244.92 320.68 238.644C324.909 234.358 322.573 228.886 320.855 223.766C320.139 221.633 318.281 217.928 317.405 215.506C317.367 215.403 317.241 215.394 317.163 215.336C319.624 213.816 321.783 212.715 323.176 212.482C323.176 212.479 335.062 225.424 331.319 237.539Z" fill="#F39568"/>
<path d="M264.203 271.795L265.555 286.799C265.699 288.387 265.196 289.962 264.199 291.039L256.81 299.036C255.93 299.989 254.563 299.914 253.761 298.869C253.089 297.994 253.011 296.686 253.575 295.709L259.061 286.187L258.111 283.306L254.908 289.087L252.332 294.772L251.025 303.624C250.835 304.911 249.774 305.749 248.699 305.462C247.76 305.212 247.12 304.181 247.197 303.044L247.929 292.416L249.007 284.69L246.359 292.654L243.459 305.704C243.267 306.568 242.652 307.207 241.905 307.321C240.754 307.497 239.752 306.388 239.821 305.015L240.396 293.561L242.375 285.32L236.596 296.786L233.458 304.872C233.111 305.766 232.262 306.22 231.467 305.939C230.584 305.627 230.083 304.522 230.351 303.477L232.78 293.964L236.876 284.645L232.891 292.057L231.816 294.965C231.593 295.571 230.996 295.847 230.483 295.582C230.04 295.352 229.796 294.782 229.902 294.222L230.532 290.903L233.301 284.055L254.578 267.335C254.578 267.335 258.141 265.911 264.203 271.795Z" fill="#F9B587"/>
<path d="M265.65 275.991C265.212 276.215 265.03 276.314 264.63 276.527H264.628C264.628 276.527 264.302 274.543 261.705 271.998C261.833 272.047 263.777 272.767 265.65 275.991Z" fill="#F39568"/>
<path d="M461.421 246.158C460.979 247.18 460.033 247.862 459.011 248.317C459.853 263.606 459.551 276.726 457.611 282.646C451.635 300.876 400.756 309.786 388.524 296.55C376.295 283.314 369.634 195.929 386.121 182.141C398.428 171.845 424.254 170.169 436.552 169.981C441.699 169.903 446.387 173.539 448.314 179.193C451.401 188.25 454.159 202.607 456.158 217.901C456.89 217.925 457.672 218.057 458.424 218.377C460.971 219.464 462.62 243.376 461.421 246.158Z" fill="#2C2A40"/>
<path d="M368.046 426.523C368.485 428.657 369.312 430.799 370.636 432.885C370.636 432.885 365.249 435.465 360.249 437.881C356.442 439.722 350.206 440.819 346.168 442.644C345.161 443.101 344.293 443.605 343.629 444.173C343.458 444.319 343.302 444.47 343.162 444.627C340.929 447.09 329.226 452.895 325.532 453.938C325.159 454.044 324.869 454.101 324.676 454.101C323.571 454.101 322.021 453.535 321.079 451.746V451.742C320.235 450.133 319.88 447.542 320.779 443.492C321.648 439.568 324.449 434.829 327.223 430.851C330.605 426.004 334.69 421.919 339.277 418.754C343.579 415.787 348.999 411.91 350.056 410.533C353.431 406.135 356.449 401.062 361.244 398.813C362.433 398.259 363.996 398.089 365.671 398.157C370.754 398.355 376.891 400.686 376.891 400.686C376.891 400.686 365.345 413.509 368.046 426.523Z" fill="#B0B1CA"/>
<path d="M365.671 398.158C363.348 400.151 359.658 403.635 358.142 406.806C355.849 411.6 346.856 416.573 342.96 419.592C339.063 422.61 324.049 436.522 322.577 444.158C321.298 450.789 323.869 453.314 325.53 453.941C325.158 454.045 324.868 454.101 324.676 454.101C322.577 454.101 318.881 452.063 320.779 443.492C321.648 439.568 324.448 434.83 327.223 430.852C330.605 426.005 334.69 421.921 339.277 418.756C343.578 415.788 348.997 411.91 350.055 410.535C353.431 406.135 356.449 401.063 361.245 398.815C362.434 398.257 363.996 398.09 365.671 398.158Z" fill="#2C2A40"/>
<path opacity="0.2" d="M370.635 432.885C370.635 432.885 365.247 435.465 360.248 437.881C356.441 439.722 350.205 440.819 346.166 442.644C345.16 443.101 344.292 443.605 343.628 444.173C343.457 444.319 343.301 444.47 343.16 444.627C340.928 447.09 329.225 452.895 325.531 453.938C325.158 454.043 324.868 454.101 324.675 454.101C323.57 454.101 322.02 453.535 321.078 451.746V451.742C321.078 451.742 328.723 449.738 332.698 446.72C335.26 444.771 338.758 441.618 342.123 439.496C341.367 437.757 340.242 435.547 338.566 432.888C338.679 432.982 341.343 435.275 343.731 438.562C345.016 437.888 346.251 437.424 347.377 437.3C351.3 436.877 363.651 432.018 368.044 426.522C368.486 428.657 369.311 430.798 370.635 432.885Z" fill="#2C2A40"/>
<path d="M341.82 385.067C341.716 392.176 342.979 398.02 342.759 400.473C342.362 404.973 335.967 413.97 335.967 413.97C335.484 419.111 332.032 426.382 327.433 430.238V430.242C327.411 430.261 327.39 430.278 327.368 430.292C327.326 430.333 327.274 430.372 327.219 430.412C324.537 432.586 321.485 433.589 318.406 432.342C318.064 432.204 317.725 432.042 317.382 431.846C311.495 428.487 309.667 404.422 317.382 394.792C324.825 385.499 327.971 366.379 335.368 364.249C342.759 362.118 346.558 365.904 346.558 365.904C346.362 366.249 346.175 366.597 346.001 366.944C342.83 373.081 341.903 379.466 341.82 385.067Z" fill="#B0B1CA"/>
<path d="M346.556 365.903C346.362 366.247 346.176 366.595 345.999 366.944C345.297 366.639 338.283 363.712 333.967 366.968C329.42 370.399 326.872 383.426 324.474 386.978C322.075 390.529 314.582 403.55 314.384 408.642C314.184 413.731 313.185 426.279 317.28 429.95C321.146 433.412 325.829 431.441 327.219 430.412C324.239 432.828 320.801 433.794 317.381 431.843C311.494 428.487 309.665 404.422 317.381 394.791C324.823 385.496 327.971 366.379 335.366 364.247C342.759 362.117 346.556 365.903 346.556 365.903Z" fill="#2C2A40"/>
<path opacity="0.2" d="M342.759 400.473C342.392 404.622 336.931 412.592 336.078 413.81L336.007 413.911C335.983 413.951 335.967 413.968 335.967 413.968C335.484 419.109 332.032 426.381 327.433 430.236V430.241C327.411 430.259 327.39 430.277 327.368 430.291C327.326 430.331 327.274 430.37 327.219 430.41C324.537 432.584 321.485 433.588 318.406 432.341C318.886 432.054 319.491 431.808 320.253 431.624C325.491 430.353 329.999 421.751 330.993 417.04C331.289 415.638 332.216 413.873 333.388 412.007C331.599 410.787 329.217 409.442 327.37 409.41C327.37 409.41 329.777 408.378 334.207 410.736C336.9 406.682 340.314 402.425 340.701 400.472C341.312 397.399 341.82 385.066 341.82 385.066C341.717 392.175 342.979 398.02 342.759 400.473Z" fill="#2C2A40"/>
<path d="M495.229 138.313L480.241 148.207L465.104 158.201C465.104 158.201 459.011 141.864 464.454 131.742C464.454 131.742 465.725 130.861 467.584 129.704C468.945 128.854 470.623 127.861 472.347 126.951C473.33 126.433 474.331 125.942 475.297 125.527C475.297 125.527 476.796 119.628 479.344 112.987C480.696 109.467 480.866 107.062 480.729 105.585C480.606 104.275 480.243 103.685 480.243 103.685C480.243 103.685 488.036 99.0292 492.532 94.5188C492.532 94.5188 502.123 120.555 495.229 138.313Z" fill="#F9B587"/>
<path d="M482.94 132.691C482.94 132.691 476.514 134.594 472.348 126.951C473.331 126.433 474.332 125.942 475.298 125.527C475.298 125.527 478.243 131.742 482.94 132.691Z" fill="#F39568"/>
<path d="M480.241 148.207L465.104 158.201C465.104 158.201 459.011 141.864 464.454 131.742C464.454 131.742 465.725 130.861 467.584 129.704C467.584 129.704 467.752 143.59 469.352 147.017C470.95 150.449 476.345 149.283 480.241 148.207Z" fill="#F39568"/>
<path d="M492.532 94.5188C490.733 96.8942 482.844 103.579 481.687 104.232C481.283 104.46 480.725 104.169 480.173 103.692C479.636 103.724 476.109 103.895 474.172 102.857C473.108 102.286 473.124 100.502 473.4 98.6132C470.843 97.8818 465.861 93.2577 465.929 88.8567C466.005 84.0627 470.351 83.7071 470.351 83.7071C470.426 78.2019 474.847 79.0902 474.847 79.0902C475.071 76.6932 478.743 75.6279 478.743 75.6279C479.117 73.5864 481.516 73.2308 482.94 74.0298C484.364 74.8289 492.832 86.4597 493.206 88.5904C493.58 90.7225 492.532 94.5188 492.532 94.5188Z" fill="#F9B587"/>
<path d="M479.957 95.9614C480.572 98.714 478.617 99.0681 478.617 99.0681C479.013 98.7096 478.983 97.5335 478.872 96.5214C478.872 96.5214 478.858 95.8318 478.641 95.0083C478.639 95.0054 478.639 95.0054 478.639 95.0011C478.402 94.1028 477.92 93.0447 476.945 92.5264C475.192 91.5993 474.397 92.2313 474.397 92.2313L470.914 86.6382C472.712 87.9238 475.11 90.9888 475.11 90.9888C478.206 90.8391 479.364 93.5428 479.765 95.0227C480.374 94.9666 481.048 94.6527 481.291 93.6522C481.777 91.6525 480.656 89.7234 480.656 89.7234L475.821 82.1091C475.821 82.1091 482.415 89.3894 482.566 92.2313C482.763 96.0046 479.957 95.9614 479.957 95.9614Z" fill="#F39568"/>
<path d="M480.655 79.7135C480.655 79.7135 484.968 85.8147 485.539 87.4818C486.163 89.3015 485.188 91.1227 484.064 91.4768C482.94 91.8324 482.3 91.1515 482.3 91.1515L482.304 93.0748C482.304 93.0748 486.662 93.8738 486.618 88.9733C486.596 86.523 480.655 79.7135 480.655 79.7135Z" fill="#F39568"/>
<path d="M486.342 87.8418C486.342 87.8418 487.398 89.0367 488.672 88.5487C489.945 88.0606 490.207 87.0385 489.908 86.1071C489.908 86.1071 490.682 87.0083 490.021 88.327C489.16 90.043 487.018 89.735 486.342 89.5262V87.8418Z" fill="#F39568"/>
<path d="M485.538 102.859C485.538 102.859 484.21 105.892 480.728 105.587C480.605 104.277 480.242 103.686 480.242 103.686C480.242 103.686 483.09 103.924 485.538 102.859Z" fill="#F39568"/>
<path d="M435.674 334.719C435.674 334.719 431.27 323.276 432.076 316.785C432.882 310.294 440.301 320.505 441.275 323.256C442.25 326.009 440.863 333.571 435.674 334.719Z" fill="#6C8C31"/>
<path d="M379.768 401.511C375.404 403.745 370.806 405.055 367.023 405.225C371.019 401.756 375.73 400.473 375.73 400.473C376.993 400.654 378.368 401.027 379.768 401.511Z" fill="#2C2A40"/>
<path d="M465.653 427.227C464.856 406.629 436.236 354.184 431.783 314.407L413.849 306.742C411.468 305.929 412.508 306.398 409.703 305.411C409.703 305.411 367.337 279.484 348.354 313.579C348.354 313.579 345.956 325.655 351.75 338.439C354.16 343.756 355.947 360.221 354.149 363.538C354.149 363.538 351.75 363.772 346.556 365.903C343.372 367.209 338.461 369.583 335.136 371.224C330.947 373.291 327.735 377.518 326.622 382.73C326.047 385.419 325.974 388.546 326.973 391.95C330.168 402.84 338.162 404.026 343.357 403.077C343.357 403.077 354.548 403.077 363.34 404.971C364.432 405.205 365.676 405.287 367.021 405.227C364.589 407.34 362.423 410.263 361.743 414.204C359.944 424.625 368.453 432.2 368.453 432.2C368.453 432.2 369.334 434.331 376.13 433.858C382.922 433.382 382.904 431.23 388.519 433.926C394.133 436.621 433.48 455.878 446.468 456.588C459.46 457.297 466.453 447.826 465.653 427.227ZM392.006 405.225C392.006 405.225 385.678 403.55 379.768 401.511C386.362 398.137 392.416 392.657 394.314 385.792C397.09 375.742 396.059 370.2 396.913 365.804C396.913 365.804 403.507 389.581 421.791 409.825C421.791 409.825 402.326 404.799 392.006 405.225Z" fill="#2C2A40"/>
<path d="M348.082 370.798C347.472 370.949 346.852 371.102 346.229 371.257L346.419 372.321C347.041 372.164 347.659 372.012 348.268 371.862C348.892 371.708 349.507 371.557 350.109 371.405L349.918 370.342C349.319 370.493 348.705 370.644 348.082 370.798Z" fill="#5B5B6C"/>
<path d="M329.34 378.399L329.787 379.348C330.87 378.631 331.981 377.92 333.088 377.234L332.663 376.271C331.549 376.962 330.431 377.678 329.34 378.399Z" fill="#5B5B6C"/>
<path d="M340.394 372.862L340.628 373.913C341.702 373.576 342.895 373.237 344.276 372.871L344.075 371.81C342.683 372.179 341.479 372.523 340.394 372.862Z" fill="#5B5B6C"/>
<path d="M359.987 355.271L360.903 355.21C360.832 353.725 360.711 352.216 360.545 350.726L359.635 350.869C359.798 352.332 359.917 353.813 359.987 355.271Z" fill="#5B5B6C"/>
<path d="M352.448 310.327L351.532 310.255C351.448 311.767 351.396 313.276 351.377 314.741L352.295 314.757C352.314 313.31 352.365 311.82 352.448 310.327Z" fill="#5B5B6C"/>
<path d="M359.301 348.319L360.203 348.128C359.974 346.598 359.694 345.116 359.375 343.725L358.49 344.011C358.803 345.371 359.075 346.821 359.301 348.319Z" fill="#5B5B6C"/>
<path d="M334.669 375.111L335.034 376.109C336.046 375.589 337.189 375.102 338.53 374.617L338.262 373.578C336.888 374.074 335.713 374.577 334.669 375.111Z" fill="#5B5B6C"/>
<path d="M358.934 366.691C358.71 367.052 358.282 367.418 357.663 367.775L358.064 368.752C358.829 368.31 359.355 367.847 359.672 367.333C359.991 366.819 360.257 366.031 360.464 364.992L359.571 364.741C359.349 365.86 359.101 366.419 358.934 366.691Z" fill="#5B5B6C"/>
<path d="M358.723 341.202C358.276 339.658 357.768 338.252 357.217 337.022L356.406 337.534C356.936 338.713 357.423 340.066 357.856 341.554L358.723 341.202Z" fill="#5B5B6C"/>
<path d="M352.301 317.341L351.383 317.363C351.409 318.929 351.478 320.442 351.586 321.857L352.5 321.758C352.394 320.367 352.326 318.881 352.301 317.341Z" fill="#5B5B6C"/>
<path d="M360.979 357.837L360.061 357.848C360.062 358.011 360.064 358.171 360.062 358.332C360.062 359.75 360.01 361.066 359.908 362.242L360.821 362.353C360.926 361.139 360.98 359.786 360.98 358.332C360.981 358.169 360.98 358.004 360.979 357.837Z" fill="#5B5B6C"/>
<path d="M353.507 328.612C353.199 327.315 352.946 325.868 352.754 324.315L351.846 324.472C352.043 326.072 352.305 327.564 352.624 328.907L353.507 328.612Z" fill="#5B5B6C"/>
<path d="M354.198 331.016L353.349 331.427C353.833 332.832 354.411 334.051 355.068 335.052C355.141 335.162 355.213 335.275 355.283 335.39L356.023 334.748C355.947 334.624 355.87 334.503 355.793 334.385C355.186 333.464 354.65 332.331 354.198 331.016Z" fill="#5B5B6C"/>
<path d="M352.062 369.787L352.266 370.847C353.805 370.431 354.975 370.071 355.948 369.709L355.675 368.672C354.725 369.024 353.577 369.378 352.062 369.787Z" fill="#5B5B6C"/>
<path d="M399.473 363.572C398.829 362.41 398.468 361.751 398.468 361.751L399.238 361.159C399.238 361.159 399.598 361.817 400.241 362.975L399.473 363.572Z" fill="#5B5B6C"/>
<path d="M382.048 406.497C383.019 406.772 384.175 407.121 385.582 407.565L385.817 406.515C384.403 406.069 383.24 405.718 382.262 405.44L382.048 406.497Z" fill="#5B5B6C"/>
<path d="M376.498 404.409L376.383 405.487C377.307 405.627 378.137 405.722 378.849 405.768C379.106 405.784 379.488 405.849 379.985 405.959L380.156 404.891C379.611 404.769 379.2 404.701 378.899 404.681C378.209 404.638 377.402 404.546 376.498 404.409Z" fill="#5B5B6C"/>
<path d="M387.639 408.221C388.752 408.581 389.932 408.967 391.16 409.373L391.407 408.325C390.179 407.919 388.996 407.532 387.881 407.172L387.639 408.221Z" fill="#5B5B6C"/>
<path d="M393.435 408.999L393.187 410.045L396.706 411.215L396.954 410.169L393.435 408.999Z" fill="#5B5B6C"/>
<path d="M398.785 411.904C399.956 412.293 401.135 412.681 402.307 413.066L402.551 412.018C401.379 411.633 400.201 411.244 399.031 410.857L398.785 411.904Z" fill="#5B5B6C"/>
<path d="M413.239 385.62C412.533 384.44 411.832 383.256 411.141 382.082L410.389 382.704C411.081 383.88 411.784 385.065 412.491 386.248L413.239 385.62Z" fill="#5B5B6C"/>
<path d="M430.959 412.778C430.707 411.62 430.076 410.342 429.028 408.87L428.327 409.572C429.27 410.897 429.857 412.068 430.071 413.05L430.959 412.778Z" fill="#5B5B6C"/>
<path d="M416.611 391.18C415.901 390.03 415.188 388.859 414.475 387.677L413.729 388.311C414.443 389.494 415.16 390.669 415.871 391.822L416.611 391.18Z" fill="#5B5B6C"/>
<path d="M370.717 403.966L370.654 404.339C371.934 404.642 373.148 404.906 374.26 405.12L374.407 404.048C373.872 403.944 373.311 403.829 372.732 403.704C372.061 403.803 371.389 403.891 370.717 403.966Z" fill="#5B5B6C"/>
<path d="M400.643 365.678C401.223 366.721 401.905 367.937 402.667 369.288L403.43 368.684C402.669 367.335 401.989 366.12 401.408 365.079L400.643 365.678Z" fill="#5B5B6C"/>
<path d="M422.689 417.433C422.364 417.445 421.944 417.419 421.434 417.353L421.334 418.434C421.795 418.493 422.195 418.523 422.523 418.523C422.591 418.523 422.655 418.522 422.718 418.519C423.57 418.486 424.365 418.421 425.078 418.327L424.977 417.246C424.287 417.338 423.517 417.4 422.689 417.433Z" fill="#5B5B6C"/>
<path d="M427.097 406.472C426.499 405.8 425.804 404.937 425.032 403.907L424.346 404.628C425.134 405.68 425.848 406.566 426.464 407.26C426.615 407.429 426.762 407.598 426.903 407.763L427.547 406.989C427.404 406.82 427.253 406.648 427.097 406.472Z" fill="#5B5B6C"/>
<path d="M423.652 402.005C422.945 401.003 422.176 399.874 421.365 398.65L420.644 399.321C421.46 400.552 422.235 401.69 422.947 402.7L423.652 402.005Z" fill="#5B5B6C"/>
<path d="M417.134 393.858C417.897 395.076 418.637 396.242 419.335 397.322L420.064 396.661C419.369 395.586 418.631 394.425 417.872 393.212L417.134 393.858Z" fill="#5B5B6C"/>
<path d="M427.02 416.843L427.234 417.9C428.936 417.416 430.048 416.675 430.632 415.631L429.868 415.031C429.423 415.823 428.465 416.433 427.02 416.843Z" fill="#5B5B6C"/>
<path d="M404.364 413.738C405.559 414.125 406.741 414.504 407.895 414.867L408.131 413.817C406.978 413.454 405.798 413.076 404.606 412.688L404.364 413.738Z" fill="#5B5B6C"/>
<path d="M415.592 417.159C416.967 417.531 418.178 417.832 419.192 418.051L419.357 416.981C418.355 416.766 417.158 416.469 415.798 416.099L415.592 417.159Z" fill="#5B5B6C"/>
<path d="M407.101 377.062C407.771 378.225 408.464 379.418 409.171 380.629L409.926 380.01C409.218 378.801 408.527 377.609 407.858 376.447L407.101 377.062Z" fill="#5B5B6C"/>
<path d="M406.66 374.364C405.943 373.114 405.259 371.914 404.616 370.781L403.854 371.387C404.498 372.521 405.183 373.723 405.9 374.974L406.66 374.364Z" fill="#5B5B6C"/>
<path d="M409.961 415.51C411.236 415.903 412.43 416.26 413.511 416.572L413.729 415.517C412.652 415.206 411.462 414.849 410.192 414.458L409.961 415.51Z" fill="#5B5B6C"/>
<path d="M379.768 401.511C375.404 403.745 370.806 405.055 367.023 405.225C371.019 401.756 375.73 400.473 375.73 400.473C376.993 400.654 378.368 401.027 379.768 401.511Z" fill="#2C2A40"/>
<path d="M466.622 160.865C466.559 167.719 466.254 172.701 466.254 172.701C465.181 173.166 464.035 173.764 462.843 174.481C454.936 179.229 445.113 189.133 442.724 199.221C441.774 203.235 441.333 211.523 441.163 220.896C441.022 228.472 441.061 236.754 441.148 244.059C441.155 244.453 441.157 244.848 441.163 245.235C441.286 254.486 441.478 261.969 441.478 264.097C441.478 270.014 440.477 287.537 440.279 295.113C440.078 302.688 441.876 310.739 442.677 323.524C443.474 336.31 435.675 334.719 435.675 334.719C443.27 330.932 439.334 320.158 434.482 317.842C433.759 317.498 432.923 317.125 431.985 316.733C431.981 316.729 431.981 316.729 431.981 316.729C420.381 311.863 393.479 303.653 379.769 301.266C359.348 297.714 348.357 313.579 348.357 313.579C348.357 313.579 352.352 287.298 355.751 282.088C359.148 276.881 361.146 259.834 362.544 252.731C362.732 251.782 362.834 250.579 362.877 249.204C363.069 242.844 361.896 232.853 361.213 227.678C360.941 225.615 360.745 224.318 360.745 224.318C358.68 228.342 345.267 236.627 338.403 240.684C335.978 242.12 334.369 243.021 334.369 243.021L328.677 232.785L317.385 212.477C317.385 212.477 318.135 211.671 320.473 209.487C322.136 207.935 324.603 205.687 328.176 202.534C336.766 194.958 346.958 181.224 350.755 179.093C354.553 176.963 355.152 177.2 360.146 171.518C363.65 167.533 376.365 162.707 383.649 160.178C386.751 159.103 388.868 158.442 388.868 158.442C398.604 161.937 405.8 157.074 405.8 157.074C405.8 157.074 408.463 155.007 412.065 152.421C417.907 148.228 426.228 142.672 429.687 142.352C434.07 141.948 452.917 135.668 460.881 132.963C463.087 132.217 464.457 131.741 464.457 131.741C466.367 140.135 466.696 152.047 466.622 160.865Z" fill="#A5C723"/>
<path d="M396.752 169.271C388.135 169.782 384.475 162.214 383.648 160.179C386.75 159.104 388.867 158.443 388.867 158.443C398.603 161.939 405.799 157.076 405.799 157.076C405.799 157.076 408.462 155.008 412.064 152.423C413.105 162.843 406.463 168.692 396.752 169.271Z" fill="#2C2A40"/>
<path d="M338.401 240.684C335.975 242.12 334.367 243.021 334.367 243.021L317.383 212.477C317.383 212.477 318.133 211.671 320.47 209.487L338.401 240.684Z" fill="#2C2A40"/>
<path d="M466.253 172.701C465.18 173.166 464.034 173.764 462.842 174.481C464.332 157.299 462.019 139.986 460.879 132.964C463.085 132.219 464.455 131.742 464.455 131.742C467.855 146.658 466.253 172.701 466.253 172.701Z" fill="#2C2A40"/>
<path d="M441.146 244.059C427.142 236.796 393.007 223.773 362.874 249.205C363.066 242.845 361.893 232.854 361.21 227.68C365.781 224.256 387.717 208.726 408.702 209.489C423.15 210.014 434.519 216.19 441.16 220.896C441.021 228.47 441.06 236.753 441.146 244.059Z" fill="#B8E019"/>
<path d="M373.575 101.461C373.575 101.461 368.032 99.9822 367.345 107.609C366.757 114.147 373.763 116.596 373.763 116.596C373.763 116.596 376.01 105.499 373.575 101.461Z" fill="#2C2A40"/>
<path d="M376.309 112.538C376.309 112.538 370.766 111.059 370.079 118.686C369.491 125.224 376.497 127.672 376.497 127.672C376.497 127.672 378.743 116.577 376.309 112.538Z" fill="#2C2A40"/>
<path d="M372.653 103C372.653 103 363.831 98.9832 366.848 87.4575C369.865 75.9317 381.36 80.5198 381.36 80.5198C381.36 80.5198 381.784 72.4866 389.369 72.0735C396.956 71.6603 399.709 78.8355 399.709 78.8355C399.709 78.8355 404.84 72.7947 411.085 74.6058C417.329 76.4169 419.445 85.3945 417.508 89.6429C417.508 89.6429 421.476 88.8064 424.493 94.2828C427.51 99.7578 428.281 107.879 424.536 110.895C424.536 110.895 428.986 116.668 426.558 124.504C424.132 132.341 417.608 132.153 417.608 132.153C417.608 132.153 418.863 142.364 410.496 144.852C402.128 147.339 402.91 138.524 402.91 138.524C402.91 138.524 388.239 98.4405 372.653 103Z" fill="#2C2A40"/>
<path d="M407.568 148.917L408.78 155.946C409.088 157.732 408.494 159.578 407.25 160.649C396.51 169.894 388.327 163.535 386.604 160.4C387.902 158.957 410.958 133.107 411.33 118.574C411.33 118.574 413.977 136.65 407.568 148.917Z" fill="#F9B587"/>
<path d="M373.265 122.503C372.815 124.586 372.665 126.729 372.814 128.846C372.938 130.676 373.284 132.489 373.85 134.223L377.612 145.753C379.011 150.042 382.561 152.8 386.437 152.598C390.88 152.368 396.816 151.169 401.96 147.109C411.67 139.449 411.71 121.858 411.71 121.858C411.71 121.858 410.91 104.012 398.408 97.2528C385.906 90.4937 373.188 98.4088 373.188 98.4088L371.733 110.896C371.651 111.593 371.603 112.291 371.587 112.99C371.53 115.336 371.836 117.681 372.496 119.911L373.265 122.503Z" fill="#F9B587"/>
<path d="M383.443 109.324C383.443 109.324 390.474 101.196 395.313 108.521L394.437 110.394C394.437 110.394 389.547 105.348 383.895 111.652L383.443 109.324Z" fill="#2C2A40"/>
<path d="M373.265 122.503C372.815 124.586 372.665 126.729 372.814 128.846C374.321 127.579 377.355 126.521 383.461 127.502C383.461 127.502 380.184 124.35 376.916 124.281C376.038 124.262 375.425 123.244 375.697 122.254L377.524 115.628C377.524 115.628 376.866 114.307 375.476 113.809C374.628 113.506 372.948 113.139 371.587 112.988C371.53 115.335 371.836 117.68 372.496 119.91L373.265 122.503Z" fill="#F39568"/>
<path d="M371.895 110.993C374.265 111.178 376.17 111.98 376.17 111.98L376.388 114.14C374.698 113.463 373.208 113.234 371.908 113.287C371.265 113.315 370.737 112.743 370.77 112.065C370.77 112.057 370.771 112.049 370.771 112.041C370.8 111.417 371.304 110.947 371.895 110.993Z" fill="#2C2A40"/>
<path d="M376.058 132.826L392.757 130.955C392.757 130.955 390.84 141.634 381.96 141.36C374.995 141.147 376.058 132.826 376.058 132.826Z" fill="white"/>
<path d="M387.427 152.247C387.427 152.247 397.78 150.72 403.349 133.638C403.349 133.638 405.927 139.934 402.899 148.985C399.871 158.034 386.604 160.398 386.604 160.398L387.427 152.247Z" fill="#F39568"/>
<path d="M407.413 118.964C407.413 118.964 410.558 111.858 415.149 115.053C419.739 118.247 417.179 134.463 410.518 131.424C403.856 128.385 407.413 118.964 407.413 118.964Z" fill="#F9B587"/>
<path d="M385.516 115.59C385.516 115.59 386.494 112.06 389.161 112.045C393.051 112.022 393.799 115.921 393.799 115.921C393.799 115.921 390.021 109.762 385.516 115.59Z" fill="#2C2A40"/>
<path d="M376.759 118.051C376.759 118.051 374.079 114.271 372.488 118.858C372.488 118.858 374.283 115.925 376.759 118.051Z" fill="#2C2A40"/>
<path d="M372.653 103C372.653 103 377.187 104.35 381.01 101.225C384.832 98.0993 383.906 95.3208 383.906 95.3208C383.906 95.3208 385.465 99.9219 390.639 99.4526C395.813 98.9832 396.527 97.2773 396.527 97.2773C396.527 97.2773 396.311 104.139 400.542 105.187C404.772 106.235 407.334 102.168 407.334 102.168C407.334 102.168 388.531 82.5469 382.067 87.7828C375.602 93.0174 370.038 95.7757 372.653 103Z" fill="#2C2A40"/>
<path d="M405.108 103.116C405.108 103.116 402.551 108.996 406.888 112.394C406.888 112.394 406.748 117.445 405.34 121.609L408.646 121.551C408.646 121.551 411.072 116.53 410.837 112.227C410.601 107.923 410.574 101.386 405.108 103.116Z" fill="#2C2A40"/>
<path d="M492.532 94.5188C492.532 94.5188 491.782 96.8194 490.684 97.7076C490.684 97.7076 492.529 97.6126 493.155 96.3587L492.532 94.5188Z" fill="#F39568"/>
<path d="M327.371 430.292C327.392 430.275 327.414 430.256 327.434 430.239V430.242C327.412 430.259 327.392 430.278 327.371 430.292Z" fill="#A5C723"/>
<path opacity="0.2" d="M431.98 316.729C420.38 311.863 393.478 303.653 379.768 301.266C359.347 297.714 348.356 313.579 348.356 313.579C348.356 313.579 352.351 287.298 355.75 282.088C359.146 276.881 361.145 259.834 362.542 252.731C362.731 251.782 362.833 250.579 362.875 249.204C363.067 242.844 361.895 232.853 361.212 227.678C360.94 225.615 360.744 224.318 360.744 224.318C358.679 228.342 345.266 236.627 338.402 240.684C335.977 242.119 334.368 243.021 334.368 243.021L328.676 232.785L327.893 228.342C327.893 228.342 342.811 218.753 363.343 205.613C363.343 205.613 372.635 219.464 372.489 235.445C372.228 263.878 368.784 283.273 383.648 289.9C398.046 296.326 429.996 315.533 431.98 316.729Z" fill="#2C2A40"/>
<path opacity="0.2" d="M466.622 160.865C466.559 167.719 466.254 172.702 466.254 172.702C465.181 173.167 464.035 173.764 462.843 174.481C454.936 179.229 445.114 189.134 442.725 199.221C441.775 203.235 441.334 211.523 441.163 220.896C441.022 228.472 441.061 236.754 441.149 244.059C441.155 244.453 441.157 244.848 441.163 245.235C441.163 245.235 435.882 202.535 438.879 189.987C441.843 177.578 466.083 161.228 466.622 160.865Z" fill="#2C2A40"/>
<path d="M367.312 171.046C362.943 201.826 363.742 238.287 363.742 238.287C365.341 247.995 361.957 256.001 361.957 256.001C345.285 234.648 356.747 171.046 362.942 158.202C370.553 142.42 381.701 160.865 381.701 160.865L376 162.998C376 162.998 374.023 159.696 371.58 160.398C369.138 161.101 367.312 171.046 367.312 171.046Z" fill="#2C2A40"/>
<path d="M414.416 150.756C414.416 150.756 416.124 135.196 425.71 134.799C440.897 134.168 444.722 181.463 445.921 207.034C447.121 232.605 441.162 237.755 441.162 237.755L440.976 223.194C440.976 223.194 433.12 160.272 429.228 149.201C424.962 137.065 421.306 143.061 417.472 149.145L414.046 151.015" fill="#2C2A40"/>
<path d="M82.4615 134.601C57.9103 127.062 38.7187 99.6267 33.624 93.0145C33.1781 92.4343 32.6823 91.4596 32.1562 90.1597C32.1538 90.1553 32.1538 90.1553 32.1538 90.1553C27.2827 78.1919 19.4177 38.8551 17.6656 29.9394C17.5465 29.3348 17.4578 28.8712 17.3995 28.5631C17.3412 28.281 17.3145 28.1327 17.3145 28.1327L31.2802 20.9014C31.2802 20.9014 32.4175 36.7677 39.1452 49.5675C45.8729 62.3688 52.0732 82.6577 52.0732 82.6577C65.2224 90.3238 79.289 104.57 79.289 104.57C86.6267 122.798 82.4615 134.601 82.4615 134.601Z" fill="#F9B587"/>
<path d="M82.462 134.601C57.9108 127.062 38.7192 99.6268 33.6245 93.0145C33.1786 92.4343 32.6829 91.4597 32.1567 90.1597C32.4411 90.4462 50.5987 108.902 57.4236 113.575C64.3032 118.286 72.0928 122.47 75.9178 119.292C79.7464 116.111 80.8168 110.053 79.2871 104.568C86.6272 122.798 82.462 134.601 82.462 134.601Z" fill="#F39568"/>
<path d="M18.1723 28.9676C20.8648 28.8625 30.2559 25.9948 31.4223 25.3642C31.8294 25.1425 31.9995 24.45 32.0457 23.6424C32.4114 23.176 34.788 20.0822 35.3627 17.6578C35.6762 16.3247 34.5146 15.1917 33.1149 14.2286C34.285 11.4371 34.4964 3.94378 31.6058 1.17823C28.4576 -1.83494 25.4346 1.88222 25.4346 1.88222C21.8271 -1.58732 19.5599 2.9965 19.5599 2.9965C17.8649 1.66051 14.8163 4.30801 14.8163 4.30801C13.255 3.33625 11.4847 5.28409 11.0861 7.09084C10.6876 8.89615 12.7678 24.0585 13.905 25.7673C15.0423 27.4805 18.1723 28.9676 18.1723 28.9676Z" fill="#F9B587"/>
<path d="M27.1843 18.4798C28.5694 20.8063 30.0554 19.2601 30.0554 19.2601C29.5694 19.3882 28.8282 18.6065 28.245 17.855C28.245 17.855 27.8088 17.3986 27.4152 16.673C27.4152 16.6687 27.4152 16.6687 27.4127 16.6659C26.9838 15.8741 26.6096 14.7554 26.9 13.5375C27.4273 11.3507 28.3471 11.0354 28.3471 11.0354L26.968 4.27917C26.6436 6.73808 27.0847 10.8843 27.0847 10.8843C24.9984 13.5994 26.0021 16.3866 26.7019 17.7024C26.2742 18.2178 25.6388 18.6295 24.8344 18.2063C23.2293 17.3626 22.7032 15.1053 22.7032 15.1053L20.8867 5.82247C20.8867 5.82247 21.3569 16.4873 23.0981 18.4496C25.4091 21.0539 27.1843 18.4798 27.1843 18.4798Z" fill="#F39568"/>
<path d="M16.231 8.67163C16.231 8.67163 17.4047 16.5076 18.1155 18.0984C18.8919 19.8346 20.695 20.1197 21.6464 19.3279C22.5978 18.5361 22.5698 17.5168 22.5698 17.5168L23.8116 18.7563C23.8116 18.7563 21.5273 23.2264 18.3864 20.0376C16.8154 18.441 16.231 8.67163 16.231 8.67163Z" fill="#F39568"/>
<path d="M17.831 19.0586C17.831 19.0586 17.9246 20.7847 16.791 21.6269C15.6573 22.4691 14.8274 22.0516 14.418 21.1806C14.418 21.1806 14.5042 22.4634 15.7813 22.7095C17.4446 23.0306 18.622 20.8869 18.9209 20.1398L17.831 19.0586Z" fill="#F39568"/>
<path d="M20.6781 28.9691C20.6781 28.9691 19.4217 30.1467 17.666 29.9394C17.5469 29.3348 17.4582 28.8712 17.3999 28.5631C17.3999 28.5631 18.8434 29.0814 20.6781 28.9691Z" fill="#F39568"/>
<path d="M31.7535 25.0015C31.7535 25.0015 30.2881 26.6614 28.9893 27.1149C28.9893 27.1149 30.7389 27.2603 31.9394 26.2453L31.7535 25.0015Z" fill="#F39568"/>
<path d="M52.0718 82.6576C52.0718 82.6576 47.3829 87.3091 44.7329 87.7928C44.7329 87.7928 50.09 89.9105 54.5979 84.2023L52.0718 82.6576Z" fill="#F39568"/>
<path d="M67.0525 223.35C67.5993 224.297 68.6127 224.831 69.6758 225.126C70.4875 240.418 72.2019 253.383 74.7632 258.962C82.6549 276.138 134.077 277.28 144.784 262.302C155.487 247.324 152.678 159.647 134.841 148.467C121.525 140.117 95.73 142.361 83.5115 144.034C78.3986 144.735 74.1411 149.051 72.8386 154.951C70.7524 164.401 69.564 179.058 69.2287 194.528C68.5057 194.663 67.7439 194.912 67.0331 195.343C64.6225 196.807 65.5641 220.773 67.0525 223.35Z" fill="#2C2A40"/>
<path d="M259.934 138.212C259.934 138.212 256.008 155.465 249.79 174.606C248.851 177.497 247.861 180.435 246.821 183.363C242.591 195.286 237.585 207.048 232.189 215.056C229.308 219.324 226.321 222.523 223.278 224.114C223.278 224.114 214.563 225.564 208.447 221.216C202.332 216.868 178.479 202.86 175.574 196.821C175.574 196.821 184.748 181.413 193.463 180.028C193.463 180.028 196.701 182.01 201.288 185.169C206.224 188.561 212.722 193.314 218.443 198.422C218.994 198.912 219.535 199.404 220.067 199.901C220.067 199.901 220.516 198.864 221.327 197.06C223.391 192.473 227.8 182.923 233.143 172.832C234.284 170.673 235.47 168.485 236.684 166.318C236.953 165.836 237.226 165.355 237.497 164.876C246.976 148.209 248.2 136.028 248.2 136.028C248.2 136.028 257.335 135.122 259.934 138.212Z" fill="#F9B587"/>
<path d="M249.79 174.608C248.851 177.498 247.861 180.437 246.821 183.365L233.143 172.833C234.284 170.673 235.47 168.485 236.684 166.318L249.79 174.608Z" fill="#F39568"/>
<path d="M232.189 215.056C229.308 219.324 226.321 222.523 223.278 224.114C223.278 224.114 214.563 225.564 208.447 221.216C202.332 216.868 178.479 202.861 175.574 196.821C175.574 196.821 184.748 181.413 193.463 180.028C193.463 180.028 196.701 182.01 201.288 185.169C200.756 187.335 198.643 195.121 194.848 198.89C190.415 203.288 200.659 213.433 209.526 217.962C218.395 222.49 224.575 222.294 232.189 215.056Z" fill="#F39568"/>
<path d="M219.719 211.621C220.741 206.668 218.445 198.422 218.445 198.422C218.995 198.912 219.536 199.404 220.068 199.901C220.068 199.901 220.518 198.864 221.328 197.06C222.224 207.617 219.719 211.621 219.719 211.621Z" fill="#F39568"/>
<path d="M178.975 468.221C170.819 462.667 167.966 457.113 163.073 447.45C160.168 441.71 157.478 436.91 155.771 433.958C154.591 431.915 154.453 429.269 155.416 427.07C155.489 426.9 155.566 426.729 155.646 426.552C157.563 422.255 160.747 416.204 163.493 416.048L166.6 418.052L177.345 424.987C177.345 424.987 182.033 437.751 181.828 443.324C181.654 448.19 189.582 459.461 191.983 465.801C192.185 466.337 192.346 466.838 192.463 467.297C192.546 467.627 192.604 467.935 192.634 468.221C193.209 473.575 187.13 473.778 178.975 468.221Z" fill="#B0B1CA"/>
<path d="M178.975 468.221C170.819 462.667 167.966 457.113 163.073 447.45C160.168 441.71 157.478 436.91 155.771 433.958C154.591 431.915 154.453 429.269 155.416 427.07C155.489 426.901 155.566 426.729 155.646 426.552C156.111 428.795 157.402 433.842 160.168 437.668C163.838 442.739 169.225 454.153 170.507 456.327C171.789 458.501 180.892 467.819 186.619 469.189C191.264 470.301 192.111 469.131 192.462 467.297C192.544 467.627 192.603 467.935 192.633 468.221C193.209 473.575 187.13 473.778 178.975 468.221Z" fill="#2C2A40"/>
<path opacity="0.2" d="M178.975 468.221C170.819 462.667 167.966 457.113 163.073 447.45C160.168 441.71 157.478 436.91 155.771 433.958C154.591 431.915 154.453 429.269 155.416 427.07C155.489 426.9 155.566 426.729 155.646 426.552C157.563 422.255 160.747 416.204 163.493 416.048L166.6 418.052C166.6 418.052 160.527 424.505 162.462 431.628C164.398 438.754 170.89 449.504 174.269 454.215C177.547 458.78 184.803 466.747 191.983 465.801C192.185 466.337 192.346 466.838 192.463 467.297C192.546 467.627 192.604 467.935 192.634 468.221C193.209 473.575 187.13 473.778 178.975 468.221Z" fill="#2C2A40"/>
<path d="M176.019 501.111C175.832 507.521 171.985 513.416 163.494 511.698C153.926 509.768 151.25 500.347 149.009 494.551C146.767 488.753 141.464 468.706 139.224 460.736C138.01 456.418 138.367 451.664 138.952 448.219C139.444 445.306 140.095 443.324 140.095 443.324L143.545 443.943L163.075 447.45C163.075 447.45 166.745 456.628 167.561 467.015C168.259 475.902 173.283 487.439 175.231 495.124C175.231 495.128 175.231 495.128 175.231 495.131C175.561 496.428 175.799 497.613 175.918 498.657C176.009 499.47 176.046 500.296 176.019 501.111Z" fill="#B0B1CA"/>
<path opacity="0.2" d="M176.019 501.111C175.832 507.521 171.985 513.416 163.494 511.698C153.926 509.768 151.25 500.347 149.009 494.551C146.767 488.753 141.464 468.706 139.224 460.736C138.01 456.418 138.367 451.664 138.952 448.219C139.444 445.306 140.095 443.324 140.095 443.324L143.545 443.943C143.218 447.958 144.681 459.337 147.378 465.446C150.739 473.054 153.247 489.781 159.1 497.208C164.956 504.635 175.45 506.019 175.231 495.131C175.561 496.428 175.799 497.613 175.918 498.657C176.009 499.47 176.046 500.296 176.019 501.111Z" fill="#2C2A40"/>
<path d="M176.019 501.111C175.832 507.52 171.985 513.416 163.494 511.698C153.926 509.768 151.25 500.347 149.009 494.551C146.767 488.753 141.464 468.706 139.224 460.736C138.01 456.417 138.367 451.664 138.952 448.219C139.444 451.766 142.008 463.205 145.018 472.314C149.908 487.108 153.813 500.105 157.22 504.452C160.626 508.792 174.064 511.691 176.019 501.111Z" fill="#2C2A40"/>
<path d="M75.9796 132.116L83.6392 134.976C83.6392 134.976 82.344 141.389 80.129 141.383C77.9151 141.379 75.3174 139.983 75.9796 132.116Z" fill="#00497B"/>
<path d="M233.804 334.273C233.415 332.536 232.667 330.95 231.673 329.595C228.383 325.102 218.659 313.208 199.158 299.381C174.289 281.752 169.598 283.2 157.164 272.331C157.164 272.331 114.637 266.664 97.1773 286.664C96.9975 286.869 96.8189 287.08 96.6451 287.29C95.0607 289.21 93.7035 291.355 92.627 293.754C92.627 293.754 92.627 319.891 101.342 329.427C110.058 338.963 137.389 372.708 140.04 372.397C140.04 372.397 140.242 377.64 143.505 377.882C143.505 377.882 139.019 399.378 140.853 408.56C140.853 408.56 138 416.288 139.428 421.842C140.853 427.4 139.019 432.954 139.019 436.335C139.019 439.719 141.464 454.693 149.416 457.834C157.366 460.971 166.134 457.591 166.745 449.378C167.356 441.167 165.726 435.852 166.338 431.263C166.503 430.02 167.225 426.368 168.225 421.542C171.16 423.716 175.787 425.354 177.346 424.984C179.382 424.502 183.664 410.25 186.315 409.285C188.967 408.318 198.342 394.55 205.07 386.822C211.518 379.414 238.562 355.607 233.804 334.273ZM163.074 337.759L194.877 349.382C194.877 349.382 183.963 367.248 177.431 378.511C179.076 371.175 180.459 366.577 178.975 362.186C177.346 357.353 163.074 337.759 163.074 337.759Z" fill="#2C2A40"/>
<path d="M98.1011 288.868L96.8958 289.107C96.7828 288.309 96.6965 287.69 96.6455 287.291C96.8193 287.081 96.9967 286.871 97.1777 286.665L97.7828 286.556C97.7828 286.56 97.8958 287.415 98.1011 288.868Z" fill="#5B5B6C"/>
<path d="M98.5772 292.083L97.3755 292.343C97.6173 293.912 97.8676 295.482 98.1276 297.006L99.3268 296.724C99.0705 295.205 98.819 293.643 98.5772 292.083ZM99.8894 299.923L98.6938 300.227C98.9879 301.835 99.2867 303.397 99.5832 304.861L100.773 304.52C100.476 303.067 100.18 301.521 99.8894 299.923ZM101.446 307.682L100.262 308.055C100.629 309.697 101.002 311.24 101.369 312.635L102.537 312.204C102.174 310.828 101.807 309.309 101.446 307.682ZM103.409 315.281L102.26 315.778C102.795 317.524 103.336 319.017 103.871 320.216L104.95 319.538C104.446 318.401 103.926 316.965 103.409 315.281ZM106.409 322.07L105.526 323.071C106.123 323.814 107.076 324.955 108.361 326.463L109.22 325.433C107.944 323.936 106.999 322.806 106.409 322.07ZM111.198 327.729L110.341 328.766C111.225 329.788 112.188 330.897 113.212 332.074L114.065 331.031C113.039 329.857 112.079 328.752 111.198 327.729ZM116.059 333.31L115.209 334.353C116.142 335.414 117.108 336.513 118.102 337.636L118.946 336.589C117.956 335.465 116.989 334.368 116.059 333.31ZM120.952 338.849L120.108 339.9C121.065 340.976 122.037 342.067 123.015 343.165L123.854 342.112C122.879 341.016 121.906 339.926 120.952 338.849ZM125.869 344.356L125.031 345.414C126.009 346.501 126.985 347.585 127.955 348.656L128.789 347.595C127.823 346.527 126.845 345.443 125.869 344.356ZM130.817 349.831L129.985 350.892C130.985 351.993 131.973 353.07 132.93 354.109L133.756 353.041C132.799 352.005 131.817 350.929 130.817 349.831ZM135.801 355.255L134.979 356.328C136.021 357.451 137.019 358.516 137.957 359.505L138.77 358.421C137.835 357.436 136.841 356.374 135.801 355.255ZM140.844 360.588L140.043 361.682C141.267 362.943 142.303 363.98 143.122 364.761L143.89 363.631C143.082 362.864 142.058 361.837 140.844 360.588ZM146.033 365.385L145.537 366.711C146.43 367.179 146.953 368.156 147.283 369.99L148.483 369.689C148.201 368.132 147.666 366.24 146.033 365.385ZM148.89 372.998L147.676 373.165C147.813 374.574 147.988 376.325 148.392 377.94L149.563 377.531C149.189 376.029 149.023 374.349 148.89 372.998ZM148.531 380.931C148.455 382.128 148.277 383.638 147.987 385.544L149.192 385.802C149.489 383.845 149.672 382.288 149.752 381.041L148.531 380.931ZM147.464 388.747C147.259 389.944 147.039 391.175 146.816 392.426L146.648 393.379L147.844 393.675L148.015 392.726C148.238 391.473 148.458 390.234 148.663 389.038L147.464 388.747ZM146.085 396.595C145.773 398.42 145.537 399.906 145.342 401.268L146.547 401.511C146.739 400.164 146.975 398.692 147.285 396.881L146.085 396.595ZM146.144 404.722L144.93 404.544C144.762 406.164 144.68 407.53 144.68 408.722C144.68 408.947 144.683 409.164 144.689 409.379L145.913 409.328C145.907 409.133 145.903 408.93 145.903 408.724C145.902 407.588 145.981 406.279 146.144 404.722ZM146.082 412.591L144.862 412.648C144.886 413.449 144.902 414.282 144.902 415.13C144.902 415.84 144.893 416.561 144.874 417.33L146.098 417.37C146.116 416.587 146.126 415.856 146.126 415.132C146.124 414.265 146.11 413.41 146.082 412.591ZM144.755 420.584C144.715 421.434 144.669 422.279 144.626 423.113C144.586 423.849 144.547 424.58 144.513 425.306L145.733 425.385C145.767 424.663 145.807 423.939 145.846 423.204C145.889 422.367 145.935 421.519 145.975 420.664L144.755 420.584ZM145.644 432.554C145.61 431.814 145.596 431.05 145.596 430.218C145.596 429.692 145.602 429.167 145.614 428.634L144.39 428.598C144.378 429.142 144.372 429.682 144.372 430.218C144.372 431.076 144.388 431.866 144.421 432.635C144.433 432.864 144.437 433.103 144.439 433.349L145.663 433.342C145.66 433.07 145.654 432.808 145.644 432.554ZM144.281 436.536C144.156 437.895 143.96 439.453 143.694 441.163L144.9 441.424C145.169 439.677 145.371 438.087 145.496 436.692L144.281 436.536ZM143.156 444.355C142.89 445.812 142.587 447.355 142.254 448.942L143.44 449.293C143.777 447.692 144.085 446.13 144.352 444.659L143.156 444.355Z" fill="#5B5B6C"/>
<path d="M158.268 327.846C158.268 327.846 159.705 328.415 162.06 329.353L162.451 327.98C160.094 327.041 158.656 326.47 158.656 326.47L158.268 327.846Z" fill="#5B5B6C"/>
<path d="M168.842 330.538C167.491 329.994 166.219 329.487 165.066 329.024L164.677 330.397C165.826 330.858 167.096 331.367 168.451 331.912L168.842 330.538Z" fill="#5B5B6C"/>
<path d="M176.508 388.315L177.508 389.153L179.802 385.294L178.802 384.457L176.508 388.315Z" fill="#5B5B6C"/>
<path d="M174.937 390.997L172.646 394.856L173.647 395.69L175.938 391.831L174.937 390.997Z" fill="#5B5B6C"/>
<path d="M170.508 398.4C170.547 399.203 170.566 400.007 170.573 400.81L172.034 398.352L171.034 397.516L170.508 398.4Z" fill="#5B5B6C"/>
<path d="M175.229 333.111C173.939 332.59 172.673 332.081 171.455 331.589L171.061 332.963C172.278 333.452 173.544 333.963 174.831 334.484L175.229 333.111Z" fill="#5B5B6C"/>
<path d="M194.339 341.009C193.167 340.509 191.907 339.972 190.584 339.418L190.177 340.784C191.498 341.338 192.754 341.871 193.923 342.371L194.339 341.009Z" fill="#5B5B6C"/>
<path d="M181.609 335.708C180.352 335.194 179.089 334.679 177.838 334.172L177.443 335.541C178.691 336.048 179.951 336.563 181.208 337.077L181.609 335.708Z" fill="#5B5B6C"/>
<path d="M192.84 362.838L193.746 363.813C194.556 362.754 195.5 361.526 196.411 360.298L195.496 359.343C194.59 360.559 193.647 361.784 192.84 362.838Z" fill="#5B5B6C"/>
<path d="M197.286 356.882L198.225 357.817C199.221 356.407 200.035 355.182 200.711 354.063L199.717 353.22C199.06 354.305 198.265 355.505 197.286 356.882Z" fill="#5B5B6C"/>
<path d="M200.681 343.839C199.788 343.409 198.528 342.831 196.938 342.133L196.513 343.495C198.092 344.187 199.338 344.752 200.219 345.184L200.681 343.839Z" fill="#5B5B6C"/>
<path d="M203.133 346.186L201.98 346.668C202.038 346.868 202.069 347.1 202.069 347.349C202.069 348.168 201.763 349.241 201.164 350.548L202.236 351.24C202.946 349.7 203.291 348.424 203.291 347.349C203.292 346.933 203.24 346.541 203.133 346.186Z" fill="#5B5B6C"/>
<path d="M180.392 381.787L181.391 382.624L183.685 378.765L182.685 377.928L180.392 381.787Z" fill="#5B5B6C"/>
<path d="M188.338 368.81L189.268 369.748C189.956 368.788 190.766 367.701 191.891 366.227L190.984 365.257C189.85 366.739 189.033 367.838 188.338 368.81Z" fill="#5B5B6C"/>
<path d="M186.223 371.983L184.275 375.258L185.275 376.091L187.223 372.819C187.333 372.635 187.446 372.446 187.568 372.253L186.586 371.388C186.458 371.591 186.338 371.787 186.223 371.983Z" fill="#5B5B6C"/>
<path d="M183.813 338.147C185.092 338.672 186.352 339.19 187.575 339.702L187.979 338.332C186.755 337.826 185.495 337.303 184.217 336.778L183.813 338.147Z" fill="#5B5B6C"/>
<path d="M199.157 183.62C197.732 191.178 191.675 198.069 186.861 202.503C186.861 202.503 186.861 202.503 186.857 202.503C183.411 205.681 180.603 207.598 180.603 207.598L177.747 204.682L168.882 195.642C168.882 195.642 168.882 195.642 164.622 206.055C160.366 216.468 161.543 243.106 161.051 250.685C160.62 257.301 169.228 272.797 170.958 278.09C171.212 278.865 171.319 279.421 171.227 279.699C170.511 281.872 149.235 285.133 135.398 279.699C121.564 274.264 93.5419 294.118 92.6245 293.757C91.7072 293.394 90.9065 244.917 86.6246 223.362C82.344 201.812 89.4776 145.281 89.4776 145.281L83.7158 143.114L81.1193 142.139C73.5751 142.624 75.976 132.118 75.976 132.118C75.976 132.118 76.2263 142.745 80.8131 139.977C82.8653 138.737 82.7766 131.52 82.0488 123.922C81.1594 114.61 79.3149 104.727 79.287 104.575C79.3757 104.603 80.7584 105.043 82.9321 105.771C90.1859 108.191 106.239 113.829 112.309 118.112C114.132 119.397 118.535 123.14 121.942 126.086C124.456 128.253 126.425 129.992 126.425 129.992C138.43 137.829 142.277 137.311 152.062 140.753C152.49 140.906 152.925 141.057 153.359 141.206C165.248 145.391 178.849 150.363 183.897 160.434C187.799 168.224 194.367 177.292 197.454 181.398C198.51 182.798 199.157 183.62 199.157 183.62Z" fill="#007BB0"/>
<path d="M83.7192 143.113L81.1227 142.138C73.5785 142.623 75.9794 132.117 75.9794 132.117C75.9794 132.117 76.2297 142.744 80.8165 139.976C82.8687 138.736 82.78 131.519 82.0522 123.921C81.1628 114.609 79.3183 104.726 79.2904 104.573C79.3791 104.602 80.7618 105.041 82.9355 105.77C84.7496 114.446 88.0035 133.653 83.7192 143.113Z" fill="#2C2A40"/>
<path d="M199.157 183.62C197.732 191.178 191.675 198.069 186.861 202.504C186.861 202.504 186.861 202.504 186.857 202.504C183.411 205.681 180.603 207.598 180.603 207.598L177.747 204.682C187.446 196.906 194.314 187.128 196.981 180.762C198.035 182.163 199.157 183.62 199.157 183.62Z" fill="#2C2A40"/>
<path d="M151.051 140.43C149.138 146.47 146.23 151.92 131.273 147.634C114.431 142.809 123.64 127.55 123.64 127.55C126.154 129.717 126.43 129.99 126.43 129.99C138.436 137.828 138.755 136.146 148.541 139.588C148.968 139.739 150.618 140.282 151.051 140.43Z" fill="#2C2A40"/>
<path opacity="0.2" d="M186.859 202.504C183.413 205.681 180.605 207.598 180.605 207.598L168.885 195.642C168.885 195.642 168.885 195.642 164.625 206.055C160.368 216.468 161.546 243.106 161.054 250.685C152.654 227.015 167.356 183.649 167.356 183.649C171.6 193.418 186.605 202.286 186.859 202.504Z" fill="#2C2A40"/>
<path opacity="0.2" d="M171.229 279.698C170.514 281.872 149.237 285.133 135.4 279.698C121.567 274.264 93.5441 294.118 92.6267 293.757C91.7094 293.394 90.9087 244.917 86.6268 223.362C82.3462 201.812 89.4798 145.281 89.4798 145.281L81.1227 142.139C73.5785 142.624 75.9794 132.118 75.9794 132.118C75.9794 132.118 76.2297 142.745 80.8165 139.977C82.8687 138.737 82.78 131.52 82.0522 123.922C82.0522 123.922 96.6169 136.346 104.974 139.244C104.974 139.244 102.629 157.002 100.387 180.124C98.143 203.251 99.5744 219.149 104.057 235.33C108.543 251.515 118.557 267.017 132.456 268.708C146.357 270.397 159.888 281.918 170.961 278.089C171.215 278.865 171.322 279.419 171.229 279.698Z" fill="#2C2A40"/>
<path d="M175.064 86.1056C175.064 86.1056 175.064 86.1056 175.062 86.1041C174.715 86.5101 174.486 86.7203 174.486 86.7203L128.722 105.698C128.722 105.698 121.884 101.968 122.285 87.8043C122.572 77.5886 128.134 72.9069 131.213 71.0901C130.839 70.6438 130.496 70.1644 130.217 69.734C129.801 69.0962 130.178 68.1734 130.855 68.1561C131.425 68.1403 131.925 68.1719 132.369 68.2439C132.234 67.5687 132.161 66.882 132.12 66.286C132.064 65.4827 132.802 64.9543 133.383 65.3733C134.314 66.0499 134.954 66.7265 135.384 67.3629C135.405 67.3384 135.425 67.3139 135.445 67.2909C139.881 61.9887 145.829 58.8431 152.119 58.4169C155.559 58.1837 159.753 57.8238 163.923 57.2782C171.934 56.2287 178.17 57.9361 180.505 55.087C180.505 55.087 190.371 74.5524 175.064 86.1056Z" fill="#2C2A40"/>
<path d="M174.176 82.6576C174.176 82.6576 178.857 95.6389 171.103 103.373C171.103 103.373 169.958 87.8288 174.176 82.6576Z" fill="#2C2A40"/>
<path d="M146.972 142.784C146.897 142.858 146.817 142.935 146.736 143.012C145.793 143.891 144.376 144.869 142.271 145.659C138.3 147.152 129.523 142.555 125.708 140.369C124.687 139.783 124.21 138.372 124.61 137.115C126.742 130.408 127.76 123.273 127.753 116.077C127.743 105.084 131.49 94.9852 131.49 94.9852C130.545 100.174 132.2 107.664 134.748 115.199C138.946 127.618 145.565 140.168 146.972 142.784Z" fill="#F9B587"/>
<path d="M168.079 109.814C168.093 111.989 167.801 114.138 167.22 116.175C166.723 117.938 166.011 119.62 165.099 121.159L159.037 131.402C156.783 135.212 152.73 136.899 148.962 135.585C144.645 134.079 139.059 131.189 134.838 125.719C126.872 115.395 130.442 98.1021 130.442 98.1021C130.442 98.1021 134.89 80.8005 148.56 77.7629C162.229 74.7238 173.099 86.1646 173.099 86.1646L171.966 98.8507C171.903 99.559 171.808 100.259 171.679 100.95C171.253 103.272 170.472 105.487 169.366 107.489L168.079 109.814Z" fill="#F9B587"/>
<path d="M160.783 93.9344C160.783 93.9344 155.545 83.9246 149.287 89.7249L149.763 91.8167C149.763 91.8167 155.602 88.2694 159.861 96.091L160.783 93.9344Z" fill="#2C2A40"/>
<path d="M168.079 109.814C168.092 111.989 167.8 114.138 167.22 116.175C166 114.497 163.236 112.583 157.035 111.787C157.035 111.787 160.901 109.635 164.127 110.507C164.994 110.742 165.805 109.917 165.74 108.868L165.306 101.832C165.306 101.832 166.222 100.722 167.691 100.634C168.587 100.581 170.312 100.705 171.681 100.948C171.255 103.27 170.474 105.486 169.368 107.487L168.079 109.814Z" fill="#F39568"/>
<path d="M171.787 98.901C169.42 98.4 167.384 98.639 167.384 98.639L166.727 100.698C168.525 100.519 170.036 100.724 171.302 101.151C171.928 101.363 172.565 100.954 172.672 100.279C172.673 100.27 172.674 100.263 172.675 100.254C172.776 99.6324 172.377 99.0248 171.787 98.901Z" fill="#2C2A40"/>
<path d="M163.215 119.151L147.195 112.501C147.195 112.501 146.886 123.545 155.666 125.834C162.553 127.631 163.215 119.151 163.215 119.151Z" fill="white"/>
<path d="M148.062 134.954L147.327 142.407C147.218 142.528 147.101 142.655 146.972 142.784C146.897 142.858 146.817 142.935 146.735 143.012C144.377 141.732 134.514 135.88 133.533 127.291C132.908 121.856 133.817 117.76 134.748 115.198C135.485 113.158 136.239 112.087 136.239 112.087C138.204 130.472 148.062 134.954 148.062 134.954Z" fill="#F39568"/>
<path d="M135.258 96.4997C135.258 96.4997 133.626 88.6134 128.461 90.4287C123.296 92.2441 122.483 108.914 129.651 107.846C136.818 106.777 135.258 96.4997 135.258 96.4997Z" fill="#F9B587"/>
<path d="M150.702 77.4015C150.702 77.4015 147.683 77.7714 147.319 82.2991C146.954 86.8254 146.303 94.526 141.388 94.3633C136.473 94.2006 135.993 101.276 135.993 101.276L132.476 100.27C132.476 100.27 132.129 87.692 134.469 83.4077C136.811 79.1218 146.673 72.9371 150.702 77.4015Z" fill="#2C2A40"/>
<path d="M150.141 97.2858C150.141 97.2858 151.824 94.7377 155.193 95.9067C158.563 97.0757 158.377 101.333 158.377 101.333C158.377 101.333 156.491 95.7541 150.141 97.2858Z" fill="#2C2A40"/>
<path d="M166.011 104.308C166.011 104.308 167.209 103.437 168.6 104.077C169.991 104.716 169.485 106.865 169.485 106.865C169.485 106.865 169.163 104.098 166.011 104.308Z" fill="#2C2A40"/>
<path d="M283.515 143.822L227.332 101.757L203.824 145.836L260.008 187.9L283.515 143.822Z" fill="#2C2A40"/>
<path d="M283.506 143.811L259.998 187.89L203.817 145.826L206.248 145.623L282.506 139.244L283.18 142.321L283.178 142.324L283.506 143.811Z" fill="#2C2A40"/>
<path d="M283.18 142.321L260.699 184.597C259.928 184.02 260.268 184.275 258.997 183.323L243.604 141.188L282.504 139.246L283.18 142.321Z" fill="white"/>
<path d="M282.514 139.256L228.787 99.0305L205.279 143.109L259.007 183.335L282.514 139.256Z" fill="#2C2A40"/>
<path d="M265.036 121.682C265.032 121.673 265.028 121.669 265.028 121.669C264.499 120.517 263.338 119.531 262.534 119.393C262.527 118.4 261.714 117.468 260.705 116.95C260.118 116.649 259.46 116.63 258.843 116.827C258.557 115.612 257.464 114.662 256.728 114.933C256.728 114.933 256.552 114.973 256.255 115.055C256.174 114.184 255.732 113.633 255.732 113.633H255.729C255.25 112.331 253.417 111.252 252.592 111.554C252.592 111.554 245.596 113.041 243.941 118.781C242.286 124.521 240.164 131.156 242.641 130.749C243.351 130.632 244.173 129.817 244.981 128.635C244.108 132.112 243.786 134.791 245.388 134.528C246.28 134.381 247.35 133.134 248.346 131.438C247.672 134.403 247.556 136.549 248.997 136.313C250.298 136.1 251.979 133.539 253.258 130.664C252.431 134.021 252.161 136.571 253.727 136.313C255.645 135.998 256.991 131.379 258.916 127.852C261.173 123.72 261.095 126.156 263.534 125.043L265.313 126.375C266.177 123.853 265.132 121.859 265.036 121.682Z" fill="#F9B587"/>
<path d="M123.64 127.55C123.64 127.55 125.579 108.423 118.888 106.865C105.892 103.842 91.4607 126.642 83.6394 150.351C71.8669 186.038 85.4669 212.834 85.4669 212.834L85.7074 199.166C85.7074 199.166 84.6382 169.449 96.2589 145.951C107.878 122.454 115.983 116.113 117.664 117.743C119.346 119.373 119.429 123.921 119.429 123.921L123.64 127.55Z" fill="#2C2A40"/>
<path d="M153.362 141.204C153.362 141.204 157.249 129.295 169.71 134.603C180.607 139.244 179.481 153.01 177.799 171.125C176.118 189.24 161.309 234.045 161.309 234.045C161.309 234.045 160.678 218.262 162.361 208.841C162.361 208.841 172.554 169.012 168.884 153.251C165.215 137.489 157.035 142.511 157.035 142.511L153.362 141.204Z" fill="#2C2A40"/>
</g>
<defs>
<filter id="filter0_d_536_2409" x="0" y="0" width="520" height="520" filterUnits="userSpaceOnUse" color-interpolation-filters="sRGB">
<feFlood flood-opacity="0" result="BackgroundImageFix"/>
<feColorMatrix in="SourceAlpha" type="matrix" values="0 0 0 0 0 0 0 0 0 0 0 0 0 0 0 0 0 0 127 0" result="hardAlpha"/>
<feOffset dy="4"/>
<feGaussianBlur stdDeviation="2"/>
<feComposite in2="hardAlpha" operator="out"/>
<feColorMatrix type="matrix" values="0 0 0 0 0 0 0 0 0 0 0 0 0 0 0 0 0 0 0.25 0"/>
<feBlend mode="normal" in2="BackgroundImageFix" result="effect1_dropShadow_536_2409"/>
<feBlend mode="normal" in="SourceGraphic" in2="effect1_dropShadow_536_2409" result="shape"/>
</filter>
</defs>
</svg>
