<svg width="379" height="331" viewBox="0 0 379 331" fill="none" xmlns="http://www.w3.org/2000/svg">
<path d="M191.857 251.639C142.028 256.408 79.7632 293.467 39.5585 276.9C-5.17744 258.795 17.1876 175.901 18.1084 143.218C19.5228 111.417 -6.48269 65.0828 41.8626 33.2352C78.4272 7.97492 153.119 46.9903 200.881 56.7032C241.544 64.5083 337.999 46.1584 362.871 97.991C381.569 137.747 388.32 207.629 352.713 242.203C324.593 269.021 251.841 244.119 191.857 251.639Z" fill="#FFA0D2"/>
<path d="M92.2609 10.2624C67.737 4.40045 39.352 5.30857 15.0341 38.1662C-10.6696 75.5055 34.4515 94.9478 34.9938 121.96C36.5202 160.815 -17.8717 189.764 19.7494 231.174C64.8949 279.688 96.377 237.204 164.804 240.144C236.2 242.209 260.262 275.168 305.482 247.626C348.778 221.255 379.641 178.449 362.525 132.462C345.409 86.4749 299.828 92.6474 227.37 81.441C153.701 70.0812 121.747 16.4986 92.2609 10.2624Z" fill="#9F9FFF"/>
<path d="M160.445 164.019L160.158 180.397L166.189 218.841L191.517 205.148L196.341 181.45V155.152L190.311 146.166L160.445 164.019Z" fill="#B78776"/>
<path d="M196.36 170.975C196.36 170.975 181.687 187.206 160.27 181.996V166.231L196.36 155.089V170.975Z" fill="#9B6253"/>
<path d="M159.268 180.923C159.268 180.923 165.72 212.602 192.27 186.036L166.274 223.551L159.268 180.923Z" fill="white"/>
<path d="M99.2498 235.167L92.6164 265.711C92.6164 265.711 85.2369 292.971 111.882 307.275C149.749 327.602 232.524 334.821 269.309 300.468C278.831 291.576 256.947 227.004 247.298 209.098C237.649 191.193 199.958 177.763 196.341 178.29L171.418 207.31C170.544 208.327 168.708 207.985 168.386 206.746L160.249 175.162C153.616 175.162 114.326 161.965 99.2498 235.167Z" fill="#303030"/>
<path d="M91.743 271.998C91.743 271.998 124.974 235.465 131.059 205.84C131.059 205.84 117.265 268.844 123.793 312.693C123.793 312.693 89.1173 303.218 91.743 271.998Z" fill="#202020"/>
<path d="M178.689 323.979C178.689 323.979 216.238 292.944 227.116 222.423C227.116 222.423 220.524 271.564 249.125 313.598C249.125 313.598 224.499 328.019 178.689 323.979Z" fill="#202020"/>
<path d="M129.402 179.343C126.032 207.183 118.567 234.378 105.015 261.79C105.015 261.79 108.688 283.308 111.494 284.406C114.3 285.504 131.817 265.762 131.817 265.762C141.234 237.228 147.979 206.512 152.976 174.366C152.976 174.366 140.461 172.712 129.402 179.343Z" fill="#FF7E27"/>
<path d="M206.593 180.923C199.389 215.957 196.816 250.479 199.259 284.45C199.259 284.45 207.099 301.302 210.718 301.302C214.336 301.302 226.397 286.03 226.397 286.03C226.414 286.94 224.486 267.029 225.181 239.571C225.692 219.316 232.632 194.387 232.632 194.387C232.632 194.387 219.833 185.472 206.593 180.923Z" fill="#FF7E27"/>
<path d="M54.6353 75.3323L50.359 115.197" stroke="#4B4B4B" stroke-width="4.07998" stroke-miterlimit="10"/>
<path d="M54.3975 115.527C54.2646 116.767 52.3487 117.624 50.1182 117.441C47.8882 117.259 46.1873 116.106 46.3203 114.866C46.4532 113.627 48.3697 112.77 50.5996 112.953C52.8302 113.135 54.5305 114.288 54.3975 115.527Z" fill="#FF7E27"/>
<path d="M46.3207 114.866L44.1641 131.023L54.4965 131.868L54.3979 115.527L46.3207 114.866Z" fill="#FF7E27"/>
<path d="M121.999 100.437C121.999 100.437 130.738 137.103 136.033 145.645C141.682 154.757 153.793 173.733 171.258 172.125C187.741 170.607 202.248 153.603 207.861 141.701C211.772 133.408 215.473 124.203 213.613 112.96C211.77 101.821 210.901 90.5032 210.901 90.5032L121.999 100.437Z" fill="#B78776"/>
<path d="M199.82 93.1625C199.82 93.1625 199.45 110.338 206.912 111.877C206.912 111.877 211.765 97.3598 212.718 109.005L213.38 125.008C213.38 125.008 218.369 116.216 215.794 104.542C215.794 104.542 217.938 106.356 218.758 116.601C218.758 116.601 223.616 81.8033 216.027 74.5656L94.4546 77.5908C94.4546 77.5908 116.765 91.9281 96.8753 90.7247C96.8753 90.7247 97.1406 100.981 118.719 107.358C118.719 107.358 117.416 113.441 124.345 121.303L128.982 127.065C128.982 127.065 125.415 117.116 125.66 106.287C125.66 106.287 125.533 104.377 130.277 102.209C135.703 99.7302 139.904 101.899 139.904 101.899C134.798 105.101 132.24 109.83 132.24 109.83C142.108 109.407 165.952 101.139 165.952 101.139C165.952 101.139 158.787 106.574 157.211 109.351C157.211 109.351 180.177 106.903 189.519 101.558C190.037 101.261 192.907 99.2916 193.354 98.9187L199.82 93.1625Z" fill="#3E3E3E"/>
<path d="M218.983 114.808C218.466 121.204 215.098 126.206 211.461 125.981C207.824 125.757 205.296 120.39 205.813 113.995C206.331 107.599 209.699 102.597 213.336 102.821C216.973 103.046 219.501 108.412 218.983 114.808Z" fill="#B78776"/>
<path d="M151.989 30.6879C151.989 30.6879 63.7891 72.7772 50.0887 76.1249C50.0887 76.1249 162.248 95.8077 165.761 100.408C165.761 100.408 254.922 60.0268 258.412 59.6368C258.412 59.6368 170.839 28.5802 151.989 30.6879Z" fill="#353535"/>
<path d="M100.596 263.183C109.488 266.973 116.28 271.397 121.745 276.437L176.534 186.525C167.856 183.153 159.115 179.051 150.186 174.144C150.186 174.144 136.089 212.937 100.596 263.183Z" fill="#E8E8E8"/>
<path d="M129.509 217.121L150.853 228.894L154.718 222.533L132.29 211.993L129.509 217.121Z" fill="#EA3A3A"/>
<path d="M142.531 300.448C142.531 300.448 129.865 288.172 176.302 260.154C176.302 260.154 184.443 265.985 183.135 274.172C180.669 289.611 165.152 311.004 142.531 300.448Z" fill="#282828"/>
<path d="M208.611 318.665C199.884 313.279 144.392 278.569 126.139 255.853C125.306 254.817 123.944 254.237 122.496 254.21C109.582 253.965 107.966 240.127 107.929 239.126C107.826 236.39 110.239 234.054 111.858 232.801C112.694 232.154 113.231 231.272 113.367 230.305C113.544 229.051 114.05 227.291 115.458 226.141C116.7 225.126 117.265 223.639 116.835 222.202C116.216 220.137 115.952 217.265 117.842 214.697C117.969 214.524 118.119 214.362 118.276 214.21C119.724 212.809 122.11 212.51 123.95 213.499L147.64 226.238C147.64 226.238 151.824 228.575 152.608 232.074C153.679 236.856 158.349 249.733 160.224 254.826C160.7 256.12 161.909 257.101 163.422 257.423C175.729 260.045 230.737 273.782 226.582 309.168C226.55 309.442 226.486 309.715 226.386 309.977C225.68 311.844 222.245 319.062 211.282 319.378C210.327 319.405 209.392 319.147 208.611 318.665Z" fill="#B78776"/>
<path d="M129.011 224.044L116.652 217.142C116.652 217.142 115.375 221.025 118.085 225.039L129.011 224.044Z" fill="#995037"/>
<path d="M121.644 231.633L114.066 228.068C114.066 228.068 113.215 229.86 113.279 231.818L121.644 231.633Z" fill="#995037"/>
<path d="M116.613 241.088L108.296 237.096C108.296 237.096 107.44 238.36 108.249 241.272L116.613 241.088Z" fill="#995037"/>
<path d="M241.433 272.041C252.727 268.498 255.033 268.367 264.894 274.286C270.113 277.42 272.081 283.481 271.479 289.341C269.696 306.678 266.491 313.947 250.876 322.309C236.253 330.14 217.467 324.555 196.95 317.721C179.661 311.961 146.783 303.961 142.531 300.448C142.531 300.448 149.177 302.88 154.426 300.974C166.214 296.692 173.823 288.484 177.882 273.546C180.513 263.866 176.302 260.153 176.302 260.153C176.302 260.153 196.18 267.722 214.398 275.647C227.139 281.188 234.532 274.205 241.433 272.041Z" fill="#444444"/>
</svg>
